mtllib grapple.mtl
# vertices
v 0 0 -256
v 0 0 -0
v 0 32 -0
v 0 32 -256
v 256 32 -0
v 256 0 -0
v 256 0 -256
v 256 32 -256
v 0 0 -256
v 0 0 -0
v 0 256 -0
v 0 256 -256
v 256 256 -0
v 256 0 -0
v 256 0 -256
v 256 256 -256
v 384 0 -128
v 384 0 -0
v 384 192 -0
v 384 192 -128
v 512 192 -0
v 512 0 -0
v 512 0 -128
v 512 192 -128
v 256 256 -128
v 256 0 -128
v 256 0 -0
v 256 256 -0
v 384 192 -0
v 384 0 -0
v 384 0 -128
v 384 192 -128
v 256 0 -256
v 256 0 -128
v 256 128 -128
v 256 128 -256
v 384 128 -128
v 384 0 -128
v 384 0 -256
v 384 128 -256
v 384 0 -256
v 384 0 -128
v 384 192 -128
v 384 128 -256
v 512 192 -128
v 512 0 -128
v 512 0 -256
v 512 128 -256
v 256 0 -512
v 256 0 -256
v 256 128 -256
v 256 128 -512
v 512 128 -256
v 512 0 -256
v 512 0 -512
v 512 128 -512
v 0 0 -512
v 0 0 -256
v 0 128 -256
v 0 128 -512
v 256 128 -256
v 256 0 -256
v 256 0 -512
v 256 128 -512
v 256 0 -768
v 256 0 -512
v 256 128 -512
v 256 128 -768
v 512 128 -512
v 512 0 -512
v 512 0 -768
v 512 128 -768
v 0 0 -768
v 0 0 -512
v 0 128 -512
v 0 128 -768
v 256 128 -512
v 256 0 -512
v 256 0 -768
v 256 128 -768
v 0 0 -1024
v 0 0 -768
v 0 256 -768
v 0 256 -1024
v 256 256 -768
v 256 0 -768
v 256 0 -1024
v 256 256 -1024
v 0 496 -560
v 0 496 -464
v 0 544 -464
v 0 544 -560
v 256 544 -464
v 256 496 -464
v 256 496 -560
v 256 544 -560
v -256 0 -640
v -256 0 -384
v -256 128 -384
v -256 128 -640
v 0 128 -384
v 0 0 -384
v 0 0 -640
v 0 128 -640
v -48 128 -544
v -48 128 -480
v -48 544 -480
v -48 544 -544
v 0 544 -480
v 0 128 -480
v 0 128 -544
v 0 544 -544
v 256 128 -544
v 256 128 -480
v 256 544 -480
v 256 544 -544
v 304 544 -480
v 304 128 -480
v 304 128 -544
v 304 544 -544

# texture coordinates
vt -256 -0
vt 0 -0
vt 0 32
vt -256 32
vt 256 32
vt 256 -0
vt 0 256
vt -256 256
vt 256 256
vt -128 -0
vt 0 192
vt -128 192
vt 512 192
vt 384 192
vt 384 -0
vt 512 -0
vt -512 -0
vt -384 -0
vt -384 128
vt -512 128
vt 512 128
vt 384 128
vt -384 192
vt -512 192
vt 128 192
vt 128 -0
vt -128 256
vt -256 128
vt 256 128
vt -128 128
vt -384 256
vt 384 256
vt -512 256
vt 512 256
vt -256 512
vt -512 512
vt 512 512
vt 256 512
vt 0 128
vt 0 512
vt -768 -0
vt -768 128
vt -256 768
vt -512 768
vt 512 768
vt 256 768
vt 768 128
vt 768 -0
vt 0 768
vt -1024 -0
vt -768 256
vt -1024 256
vt 0 1024
vt -256 1024
vt 256 1024
vt 1024 256
vt 768 256
vt 1024 -0
vt -560 496
vt -464 496
vt -464 544
vt -560 544
vt 256 544
vt 0 544
vt 0 496
vt 256 496
vt -256 464
vt 0 464
vt 0 560
vt -256 560
vt 256 560
vt 256 464
vt -256 496
vt -256 544
vt 560 544
vt 464 544
vt 464 496
vt 560 496
vt -640 -0
vt -640 128
vt 0 384
vt 256 384
vt 256 640
vt 0 640
vt -256 640
vt -256 384
vt 640 128
vt 640 -0
vt -544 128
vt -480 128
vt -480 544
vt -544 544
vt -48 544
vt -48 128
vt 0 480
vt 48 480
vt 48 544
vt -48 480
vt 48 128
vt 544 544
vt 480 544
vt 480 128
vt 544 128
vt 304 544
vt 304 128
vt -304 480
vt -256 480
vt -304 544
vt 256 480
vt 304 480
vt -304 128

# face normals
vn -1 0 -0
vn 0 0 1
vn 0 -1 -0
vn 0 1 -0
vn 0 0 -1
vn 1 0 -0
vn 0.44721359549995793 0.89442719099991586 -0
vn -0 0.89442719099991586 -0.44721359549995793

# objects
o entity0_brush0
usemtl __TB_empty
f 1/1/1 2/2/1 3/3/1 4/4/1
usemtl __TB_empty
f 5/5/2 3/3/2 2/2/2 6/6/2
usemtl __TB_empty
f 6/1/3 2/2/3 1/7/3 7/8/3
usemtl __TB_empty
f 8/9/4 4/7/4 3/2/4 5/6/4
usemtl __TB_empty
f 7/1/5 1/2/5 4/3/5 8/4/5
usemtl __TB_empty
f 8/5/6 5/3/6 6/2/6 7/6/6

o entity0_brush1
usemtl __TB_empty
f 9/1/1 10/2/1 11/7/1 12/8/1
usemtl __TB_empty
f 13/9/2 11/7/2 10/2/2 14/6/2
usemtl __TB_empty
f 14/1/3 10/2/3 9/7/3 15/8/3
usemtl __TB_empty
f 16/9/4 12/7/4 11/2/4 13/6/4
usemtl __TB_empty
f 15/1/5 9/2/5 12/7/5 16/8/5
usemtl __TB_empty
f 16/9/6 13/7/6 14/2/6 15/6/6

o entity0_brush2
usemtl __TB_empty
f 17/10/1 18/2/1 19/11/1 20/12/1
usemtl __TB_empty
f 21/13/2 19/14/2 18/15/2 22/16/2
usemtl __TB_empty
f 22/17/3 18/18/3 17/19/3 23/20/3
usemtl __TB_empty
f 24/21/4 20/22/4 19/15/4 21/16/4
usemtl __TB_empty
f 23/17/5 17/18/5 20/23/5 24/24/5
usemtl __TB_empty
f 24/25/6 21/11/6 22/2/6 23/26/6

o entity0_brush3
usemtl __TB_empty
f 25/27/1 26/10/1 27/2/1 28/7/1
usemtl __TB_empty
f 29/14/2 28/9/2 27/6/2 30/15/2
usemtl __TB_empty
f 30/18/3 27/1/3 26/28/3 31/19/3
usemtl __TB_empty
f 31/18/5 26/1/5 25/8/5 32/23/5
usemtl __TB_empty
f 32/22/7 25/29/7 28/6/7 29/15/7
usemtl __TB_empty
f 31/10/6 32/12/6 29/11/6 30/2/6

o entity0_brush4
usemtl __TB_empty
f 33/1/1 34/10/1 35/30/1 36/28/1
usemtl __TB_empty
f 37/19/2 35/28/2 34/1/2 38/18/2
usemtl __TB_empty
f 38/19/3 34/28/3 33/8/3 39/31/3
usemtl __TB_empty
f 40/32/4 36/9/4 35/29/4 37/22/4
usemtl __TB_empty
f 39/18/5 33/1/5 36/28/5 40/19/5
usemtl __TB_empty
f 40/28/6 37/30/6 38/10/6 39/1/6

o entity0_brush5
usemtl __TB_empty
f 41/1/1 42/10/1 43/12/1 44/28/1
usemtl __TB_empty
f 45/24/2 43/23/2 42/18/2 46/17/2
usemtl __TB_empty
f 46/20/3 42/19/3 41/31/3 47/33/3
usemtl __TB_empty
f 48/34/8 44/32/8 43/22/8 45/21/8
usemtl __TB_empty
f 47/17/5 41/18/5 44/19/5 48/20/5
usemtl __TB_empty
f 48/29/6 45/25/6 46/26/6 47/6/6

o entity0_brush6
usemtl __TB_empty
f 49/17/1 50/1/1 51/28/1 52/20/1
usemtl __TB_empty
f 53/21/2 51/29/2 50/6/2 54/16/2
usemtl __TB_empty
f 54/33/3 50/8/3 49/35/3 55/36/3
usemtl __TB_empty
f 56/37/4 52/38/4 51/9/4 53/34/4
usemtl __TB_empty
f 55/17/5 49/1/5 52/28/5 56/20/5
usemtl __TB_empty
f 56/21/6 53/29/6 54/6/6 55/16/6

o entity0_brush7
usemtl __TB_empty
f 57/17/1 58/1/1 59/28/1 60/20/1
usemtl __TB_empty
f 61/29/2 59/39/2 58/2/2 62/6/2
usemtl __TB_empty
f 62/8/3 58/7/3 57/40/3 63/35/3
usemtl __TB_empty
f 64/38/4 60/40/4 59/7/4 61/9/4
usemtl __TB_empty
f 63/1/5 57/2/5 60/39/5 64/28/5
usemtl __TB_empty
f 64/21/6 61/29/6 62/6/6 63/16/6

o entity0_brush8
usemtl __TB_empty
f 65/41/1 66/17/1 67/20/1 68/42/1
usemtl __TB_empty
f 69/21/2 67/29/2 66/6/2 70/16/2
usemtl __TB_empty
f 70/36/3 66/35/3 65/43/3 71/44/3
usemtl __TB_empty
f 72/45/4 68/46/4 67/38/4 69/37/4
usemtl __TB_empty
f 71/17/5 65/1/5 68/28/5 72/20/5
usemtl __TB_empty
f 72/47/6 69/21/6 70/16/6 71/48/6

o entity0_brush9
usemtl __TB_empty
f 73/41/1 74/17/1 75/20/1 76/42/1
usemtl __TB_empty
f 77/29/2 75/39/2 74/2/2 78/6/2
usemtl __TB_empty
f 78/35/3 74/40/3 73/49/3 79/43/3
usemtl __TB_empty
f 80/46/4 76/49/4 75/40/4 77/38/4
usemtl __TB_empty
f 79/1/5 73/2/5 76/39/5 80/28/5
usemtl __TB_empty
f 80/47/6 77/21/6 78/16/6 79/48/6

o entity0_brush10
usemtl __TB_empty
f 81/50/1 82/41/1 83/51/1 84/52/1
usemtl __TB_empty
f 85/9/2 83/7/2 82/2/2 86/6/2
usemtl __TB_empty
f 86/43/3 82/49/3 81/53/3 87/54/3
usemtl __TB_empty
f 88/55/4 84/53/4 83/49/4 85/46/4
usemtl __TB_empty
f 87/1/5 81/2/5 84/7/5 88/8/5
usemtl __TB_empty
f 88/56/6 85/57/6 86/48/6 87/58/6

o entity0_brush11
usemtl __TB_empty
f 89/59/1 90/60/1 91/61/1 92/62/1
usemtl __TB_empty
f 93/63/2 91/64/2 90/65/2 94/66/2
usemtl __TB_empty
f 94/67/3 90/68/3 89/69/3 95/70/3
usemtl __TB_empty
f 96/71/4 92/69/4 91/68/4 93/72/4
usemtl __TB_empty
f 95/73/5 89/65/5 92/64/5 96/74/5
usemtl __TB_empty
f 96/75/6 93/76/6 94/77/6 95/78/6

o entity0_brush12
usemtl __TB_empty
f 97/79/1 98/18/1 99/19/1 100/80/1
usemtl __TB_empty
f 101/39/2 99/28/2 98/1/2 102/2/2
usemtl __TB_empty
f 102/81/3 98/82/3 97/83/3 103/84/3
usemtl __TB_empty
f 104/84/4 100/85/4 99/86/4 101/81/4
usemtl __TB_empty
f 103/2/5 97/6/5 100/29/5 104/39/5
usemtl __TB_empty
f 104/87/6 101/22/6 102/15/6 103/88/6

o entity0_brush13
usemtl __TB_empty
f 105/89/1 106/90/1 107/91/1 108/92/1
usemtl __TB_empty
f 109/64/2 107/93/2 106/94/2 110/39/2
usemtl __TB_empty
f 110/95/3 106/96/3 105/97/3 111/64/3
usemtl __TB_empty
f 112/64/4 108/93/4 107/98/4 109/95/4
usemtl __TB_empty
f 111/39/5 105/99/5 108/97/5 112/64/5
usemtl __TB_empty
f 112/100/6 109/101/6 110/102/6 111/103/6

o entity0_brush14
usemtl __TB_empty
f 113/89/1 114/90/1 115/91/1 116/92/1
usemtl __TB_empty
f 117/104/2 115/63/2 114/29/2 118/105/2
usemtl __TB_empty
f 118/106/3 114/107/3 113/74/3 119/108/3
usemtl __TB_empty
f 120/104/4 116/63/4 115/109/4 117/110/4
usemtl __TB_empty
f 119/111/5 113/28/5 116/74/5 120/108/5
usemtl __TB_empty
f 120/100/6 117/101/6 118/102/6 119/103/6

